<?xml version="1.0" encoding="utf-8"?>
<!-- Generator: Adobe Illustrator 17.0.0, SVG Export Plug-In . SVG Version: 6.00 Build 0)  -->
<!DOCTYPE svg PUBLIC "-//W3C//DTD SVG 1.1//EN" "http://www.w3.org/Graphics/SVG/1.1/DTD/svg11.dtd">
<svg version="1.1" id="Layer_1" xmlns="http://www.w3.org/2000/svg" xmlns:xlink="http://www.w3.org/1999/xlink" x="0px" y="0px"
	 width="180px" height="60px" viewBox="0 0 180 60" enable-background="new 0 0 180 60" xml:space="preserve">
<g>
	<g>
		<path fill="#FFFFFF" d="M20,0C8.954,0,0,8.954,0,20s8.954,20,20,20s20-8.954,20-20S31.045,0,20,0z M18.329,28.331v-6.109h-9.44
			v-4.445h9.44v-6.109L30.001,20L18.329,28.331z"/>
	</g>
</g>
<g>
	<circle fill="#DDDDDD" cx="140" cy="20" r="20"/>
	<g>
		<path fill="#FFFFFF" d="M137.72,23.93l-0.06-0.78c-0.15-1.56,0.39-3.21,1.8-4.92c1.14-1.35,1.89-2.4,1.89-3.57
			c0-1.26-0.78-2.1-2.46-2.13c-1.05,0-2.25,0.33-3,0.9l-0.9-2.64c1.08-0.69,2.82-1.23,4.71-1.23c3.72,0,5.43,2.16,5.43,4.56
			c0,2.16-1.32,3.66-2.61,5.13c-1.17,1.38-1.65,2.61-1.59,4.05l0.03,0.63C140.96,23.93,137.72,23.93,137.72,23.93z M136.97,28.1
			c0-1.38,0.96-2.34,2.28-2.34c1.35,0,2.25,0.96,2.28,2.34c0,1.319-0.9,2.34-2.28,2.34C137.9,30.44,136.97,29.419,136.97,28.1z"/>
	</g>
</g>
<g>
	<circle fill="#DDDDDD" cx="80" cy="20" r="20"/>
	<g>
		<g>
			<polygon fill="#FFFFFF" points="67,28.281 67,23.719 80,20.469 93,23.719 93,28.281 80,31.531 			"/>
			<path fill="#DDDDDD" d="M80,21.5l12,3v3l-12,3l-12-3v-3L80,21.5 M80,19.438l-0.485,0.121l-12,3L66,22.938V24.5v3v1.562
				l1.515,0.379l12,3L80,32.562l0.485-0.121l12-3L94,29.062V27.5v-3v-1.562l-1.515-0.379l-12-3L80,19.438L80,19.438z"/>
		</g>
		<g>
			<polygon fill="#FFFFFF" points="67,22.281 67,17.719 80,14.469 93,17.719 93,22.281 80,25.531 			"/>
			<path fill="#DDDDDD" d="M80,15.5l12,3v3l-12,3l-12-3v-3L80,15.5 M80,13.438l-0.485,0.121l-12,3L66,16.938V18.5v3v1.562
				l1.515,0.379l12,3L80,26.562l0.485-0.121l12-3L94,23.062V21.5v-3v-1.562l-1.515-0.379l-12-3L80,13.438L80,13.438z"/>
		</g>
		<g>
			<polygon fill="#FFFFFF" points="67,16.281 67,11.719 80,8.469 93,11.719 93,16.281 80,19.531 			"/>
			<path fill="#DDDDDD" d="M80,9.5l12,3v3l-12,3l-12-3v-3L80,9.5 M80,7.438L79.515,7.56l-12,3L66,10.938V12.5v3v1.562l1.515,0.379
				l12,3L80,20.562l0.485-0.121l12-3L94,17.062V15.5v-3v-1.562l-1.515-0.379l-12-3L80,7.438L80,7.438z"/>
		</g>
	</g>
</g>
</svg>
