<?xml version="1.0" encoding="utf-8"?>
<!-- Generator: Adobe Illustrator 17.0.0, SVG Export Plug-In . SVG Version: 6.00 Build 0)  -->
<!DOCTYPE svg PUBLIC "-//W3C//DTD SVG 1.1//EN" "http://www.w3.org/Graphics/SVG/1.1/DTD/svg11.dtd">
<svg version="1.1" id="Layer_1" xmlns="http://www.w3.org/2000/svg" xmlns:xlink="http://www.w3.org/1999/xlink" x="0px" y="0px"
	 width="48px" height="48px" viewBox="0 0 48 48" enable-background="new 0 0 48 48" xml:space="preserve">
<rect x="1" y="2" display="none" fill="#999999" width="20" height="20"/>
<g>
	<path fill="#444444" d="M18.462,20c-0.408,0-0.805-0.168-1.082-0.456l-4.122-4.111c-1.406,0.973-3.089,1.49-4.796,1.49
		C3.786,16.923,0,13.137,0,8.462S3.786,0,8.462,0s8.462,3.786,8.462,8.462c0,1.707-0.517,3.39-1.49,4.796l4.122,4.122
		C19.832,17.656,20,18.053,20,18.462C20,19.315,19.315,20,18.462,20z M8.462,3.077c-2.969,0-5.385,2.415-5.385,5.385
		s2.415,5.385,5.385,5.385s5.385-2.415,5.385-5.385S11.431,3.077,8.462,3.077z M12.308,8.846c0,0.204-0.18,0.385-0.385,0.385H9.231
		v2.692c0,0.204-0.18,0.385-0.385,0.385H8.077c-0.204,0-0.385-0.18-0.385-0.385V9.231H5c-0.204,0-0.385-0.18-0.385-0.385V8.077
		c0-0.204,0.18-0.385,0.385-0.385h2.692V5c0-0.204,0.18-0.385,0.385-0.385h0.769c0.204,0,0.385,0.18,0.385,0.385v2.692h2.692
		c0.204,0,0.385,0.18,0.385,0.385V8.846z"/>
</g>
<g>
	<path fill="#444444" d="M42.462,20c-0.408,0-0.805-0.168-1.082-0.456l-4.122-4.111c-1.406,0.973-3.089,1.49-4.796,1.49
		c-4.676,0-8.462-3.786-8.462-8.462S27.786,0,32.462,0s8.462,3.786,8.462,8.462c0,1.707-0.517,3.39-1.49,4.796l4.122,4.122
		C43.832,17.656,44,18.053,44,18.462C44,19.315,43.315,20,42.462,20z M32.462,3.077c-2.969,0-5.385,2.415-5.385,5.385
		s2.415,5.385,5.385,5.385c2.969,0,5.385-2.415,5.385-5.385S35.431,3.077,32.462,3.077z M36.308,8.846
		c0,0.204-0.18,0.385-0.385,0.385H29c-0.204,0-0.385-0.18-0.385-0.385V8.077c0-0.204,0.18-0.385,0.385-0.385h6.923
		c0.204,0,0.385,0.18,0.385,0.385V8.846z"/>
</g>
<g>
	<rect y="36.75" fill="#444444" width="3.333" height="5"/>
	<rect x="4.167" y="34.25" fill="#444444" width="3.333" height="7.5"/>
	<rect x="8.333" y="31.75" fill="#444444" width="3.333" height="10"/>
	<rect x="12.5" y="29.25" fill="#444444" width="3.333" height="12.5"/>
	<rect x="16.667" y="26.75" fill="#444444" width="3.333" height="15"/>
</g>
<g>
	<rect x="24" y="34.25" fill="#444444" width="3.333" height="7.5"/>
	<rect x="28.167" y="29.25" fill="#444444" width="3.333" height="12.5"/>
	<rect x="32.333" y="31.75" fill="#444444" width="3.333" height="10"/>
	<rect x="36.5" y="26.75" fill="#444444" width="3.333" height="15"/>
	<rect x="40.667" y="29.25" fill="#444444" width="3.333" height="12.5"/>
</g>
<path fill="#444444" d="M-72.85,99.082l-7.656-7.658c-0.089-0.087-0.188-0.156-0.281-0.229c1.293-1.985,2.049-4.349,2.049-6.895
	c0-6.996-5.668-12.666-12.665-12.666c-6.994,0-12.666,5.67-12.666,12.666c0,6.996,5.672,12.665,12.666,12.665
	c2.544,0,4.911-0.758,6.898-2.05c0.073,0.095,0.141,0.192,0.227,0.279l7.655,7.658c0.523,0.521,1.206,0.781,1.885,0.781
	c0.682,0,1.365-0.26,1.888-0.78C-71.811,101.812-71.811,100.124-72.85,99.082z M-91.403,92.965c-4.778,0-8.666-3.888-8.666-8.665
	c0-4.778,3.888-8.666,8.666-8.666c4.776,0,8.666,3.888,8.666,8.666C-82.737,89.078-86.627,92.965-91.403,92.965z"/>
</svg>
