<?xml version="1.0" encoding="utf-8"?>
<!-- Generator: Adobe Illustrator 17.0.0, SVG Export Plug-In . SVG Version: 6.00 Build 0)  -->
<!DOCTYPE svg PUBLIC "-//W3C//DTD SVG 1.1//EN" "http://www.w3.org/Graphics/SVG/1.1/DTD/svg11.dtd">
<svg version="1.1" id="_x2014_ÎÓÈ_1" xmlns="http://www.w3.org/2000/svg" xmlns:xlink="http://www.w3.org/1999/xlink" x="0px"
	 y="0px" width="604.574px" height="123.939px" viewBox="0 0 604.574 123.939" enable-background="new 0 0 604.574 123.939"
	 xml:space="preserve">
<rect x="1082.038" y="3893.95" fill="none" width="4647.334" height="1095.347"/>
<text transform="matrix(1 0 0 1 1082.0381 4204.5029)"><tspan x="0" y="0" fill="#231F20" font-family="'PTSans-Bold'" font-size="443.6486">medborgar</tspan><tspan x="2066.93" y="0" fill="#231F20" font-family="'PTSans-Regular'" font-size="443.6486">initiativ.fi</tspan></text>
<g>
	<g>
		<path fill="#087480" d="M48.781,80.782c8.572,4.647,26.965,6.714,26.137-6.22c-0.336-5.27-14.949-4.677-18.332-5.128
			c-6.959-0.925-14.51-3.614-14.51-12.356c0-4.615,0.967-8.131,2.871-11.376c-3.174-2.059-5.334-5.245-5.334-10.167
			c0-22.636,28.416-19.594,41.91-13.931l0.752,0.326c0.102,0.841,0.152,1.699,0.152,2.569c0,2.556-0.451,5.009-1.279,7.279
			l-3.324-1.451c-6.891-2.893-31.68-9.376-28.738,5.207c1.152,5.703,14.953,4.679,18.34,5.13
			c6.953,0.922,14.504,3.613,14.504,12.354c0,4.615-0.965,8.134-2.871,11.374c3.17,2.06,5.34,5.251,5.34,10.169
			c0,4.136-0.926,7.485-2.537,10.141c2.404-2.487,5.164-3.664,7.293-2.061c6.178,4.642-13.344,22.644-24.508,30.744
			c-3.856,2.798-0.69,5.423,2.17,3.226c6.111-4.694,14.053-11.533,22.85-21.776c5.149-5.995,8.524-8.516,11.459-6.11
			c2.621,2.148,1.365,5.371-3.24,10.46c-0.662,0.733-8.686,10.188-19.002,19.012c-2.871,2.456-1.27,3.612,0.121,3.371
			c0.156-0.044,0.309-0.092,0.465-0.138c0.051-0.022,0.102-0.047,0.152-0.074c4.988-2.792,12.959-10.377,18.908-16.819
			c5.096-5.52,9.057-4.427,10.229-1.933c9.457-10.88,15.184-25.088,15.184-40.635C123.941,27.743,96.195,0,61.969,0
			C27.744,0,0,27.743,0,61.969c0,16.195,6.215,30.937,16.389,41.976C36.914,82.404,43.574,77.96,48.781,80.782z"/>
		<path fill="#087480" d="M69.371,49.754l-16.178-2.311c-6.363,11.409,0.752,12.302,0.752,12.302l16.271,2.313
			C76.643,51.238,69.371,49.754,69.371,49.754z"/>
		<path fill="#087480" d="M58.365,104.5c11.014-7.155,13.098-9.677,17.715-14.279c-7.846,4.426-19.871,3.519-29.975-0.29
			c-1.283,1.156-2.693,2.021-3.57,2.791C25.42,107.679,39.658,116.658,58.365,104.5z"/>
		<g>
			<path fill="#FFFFFF" d="M98.529,104.536c-5.949,6.442-13.92,14.027-18.908,16.819c-0.051,0.027-0.102,0.052-0.152,0.074
				c11.508-3.38,21.625-10.008,29.289-18.826C107.586,100.109,103.625,99.017,98.529,104.536z"/>
			<path fill="#FFFFFF" d="M78.883,118.196c10.316-8.824,18.34-18.279,19.002-19.012c4.605-5.089,5.861-8.311,3.24-10.46
				c-2.935-2.405-6.31,0.115-11.459,6.11c-8.797,10.243-16.738,17.082-22.85,21.776c-2.859,2.197-6.025-0.428-2.17-3.226
				c11.164-8.1,30.685-26.102,24.508-30.744c-2.129-1.603-4.889-0.426-7.293,2.061c1.611-2.655,2.537-6.005,2.537-10.141
				c0-4.918-2.17-8.109-5.34-10.169c1.906-3.24,2.871-6.759,2.871-11.374c0-8.741-7.551-11.433-14.504-12.354
				c-3.387-0.451-17.187,0.573-18.34-5.13c-2.941-14.583,21.848-8.1,28.738-5.207l3.324,1.451c0.828-2.271,1.279-4.724,1.279-7.279
				c0-0.87-0.051-1.729-0.152-2.569l-0.752-0.326c-13.494-5.663-41.91-8.705-41.91,13.931c0,4.922,2.16,8.108,5.334,10.167
				c-1.904,3.245-2.871,6.761-2.871,11.376c0,8.742,7.551,11.432,14.51,12.356c3.383,0.451,17.996-0.142,18.332,5.128
				c0.828,12.934-17.564,10.867-26.137,6.22c-5.207-2.822-11.867,1.622-32.393,23.162c11.322,12.293,27.551,19.995,45.58,19.995
				c5.908,0,11.623-0.828,17.035-2.372C77.613,121.809,76.012,120.652,78.883,118.196z M70.217,62.059l-16.271-2.313
				c0,0-7.115-0.893-0.752-12.302l16.178,2.311C69.371,49.754,76.643,51.238,70.217,62.059z M58.365,104.5
				c-18.707,12.158-32.945,3.179-15.83-11.778c0.877-0.77,2.287-1.635,3.57-2.791c10.103,3.809,22.129,4.716,29.975,0.29
				C71.463,94.823,69.379,97.345,58.365,104.5z"/>
		</g>
	</g>
	<g>
		<polygon fill="#939598" points="164.971,59.695 168.416,57.125 176.525,44.287 166.863,44.287 159.16,57.736 157.131,58.681 
			157.131,30.77 148.348,30.77 148.348,78.077 157.131,78.077 157.131,64.088 159.496,64.088 167.742,78.077 177.811,78.077 
			168.688,62.33 		"/>
		<path fill="#939598" d="M207.205,67.331c0.047-1.936,0.137-3.896,0.273-5.88c0.133-2.025,0.201-4.032,0.201-6.013
			c0-1.805-0.201-3.427-0.607-4.866c-0.361-1.443-1.014-2.682-1.961-3.716c-0.902-1.037-2.141-1.825-3.715-2.368
			c-1.578-0.585-3.539-0.876-5.883-0.876c-2.701,0-5.293,0.245-7.77,0.741c-2.477,0.451-4.617,1.083-6.42,1.893l2.096,6.553
			c1.262-0.583,2.859-1.058,4.797-1.417c1.982-0.361,3.854-0.541,5.611-0.541c2.342,0,3.85,0.562,4.525,1.69
			c0.678,1.08,0.854,2.883,0.541,5.407c-2.973-0.136-5.676-0.025-8.109,0.336c-2.387,0.316-4.461,0.923-6.217,1.825
			c-1.713,0.855-3.043,2.004-3.988,3.446c-0.898,1.397-1.352,3.133-1.352,5.204c0,1.484,0.25,2.839,0.744,4.054
			c0.494,1.173,1.195,2.208,2.098,3.106c0.898,0.858,1.979,1.533,3.24,2.029c1.262,0.449,2.684,0.676,4.26,0.676
			c2.52,0,4.57-0.495,6.146-1.484c1.623-1.04,2.885-2.254,3.787-3.651h0.336l1.42,4.66h7.162c-0.539-1.618-0.879-3.331-1.014-5.133
			C207.274,71.162,207.205,69.268,207.205,67.331z M198.961,67.669c-0.494,0.901-1.262,1.758-2.299,2.566
			c-1.033,0.767-2.432,1.15-4.188,1.15c-1.305,0-2.342-0.339-3.109-1.014c-0.721-0.723-1.08-1.711-1.08-2.974
			c0-0.9,0.293-1.645,0.877-2.231c0.588-0.584,1.375-1.035,2.365-1.351c0.992-0.315,2.119-0.517,3.381-0.606
			c1.305-0.091,2.658-0.067,4.053,0.067V67.669z"/>
		<path fill="#939598" d="M241.156,46.247c-0.9-1.035-2.004-1.78-3.311-2.231c-1.307-0.45-2.795-0.675-4.459-0.675
			c-2.705,0-4.914,0.541-6.625,1.621c-1.711,1.082-3.084,2.344-4.121,3.786h-0.27l-1.014-4.462h-6.961v33.79h8.785V56.18
			c0.496-1.439,1.307-2.635,2.432-3.583c1.172-0.988,2.592-1.485,4.258-1.485c1.891,0,3.221,0.609,3.988,1.825
			c0.811,1.218,1.213,3.196,1.213,5.948v19.191h8.787V57.059c0-2.612-0.225-4.797-0.676-6.556
			C242.732,48.704,242.057,47.284,241.156,46.247z"/>
		<path fill="#939598" d="M270.014,60.101c-1.127-0.812-2.369-1.464-3.717-1.961c-1.352-0.494-2.592-0.945-3.719-1.349
			c-1.125-0.453-2.072-0.926-2.838-1.422c-0.764-0.494-1.148-1.147-1.148-1.958c0-2.028,1.309-3.043,3.92-3.043
			c1.621,0,3.221,0.227,4.797,0.676c1.578,0.451,2.885,0.88,3.92,1.284l1.959-6.353c-1.17-0.674-2.793-1.284-4.865-1.825
			c-2.072-0.538-4.393-0.81-6.959-0.81c-3.74,0-6.602,0.879-8.584,2.635c-1.982,1.758-2.973,4.303-2.973,7.637
			c0,2.029,0.385,3.693,1.148,5.001c0.766,1.262,1.713,2.319,2.838,3.176c1.127,0.812,2.365,1.464,3.717,1.962
			c1.353,0.448,2.59,0.9,3.717,1.352c1.129,0.447,2.072,0.945,2.84,1.485c0.766,0.543,1.146,1.26,1.146,2.163
			c0,1.17-0.402,2.005-1.217,2.501c-0.764,0.494-1.801,0.741-3.105,0.741c-1.803,0-3.562-0.27-5.273-0.811
			c-1.711-0.585-3.084-1.17-4.123-1.756l-2.43,6.554c1.305,0.812,2.994,1.509,5.066,2.096c2.119,0.631,4.371,0.945,6.76,0.945
			c4.369,0,7.637-0.97,9.797-2.907c2.209-1.978,3.311-4.685,3.311-8.108c0-1.983-0.383-3.604-1.148-4.863
			C272.084,61.88,271.139,60.868,270.014,60.101z"/>
		<path fill="#939598" d="M306.955,67.331c0.045-1.936,0.133-3.896,0.272-5.88c0.135-2.025,0.201-4.032,0.201-6.013
			c0-1.805-0.201-3.427-0.608-4.866c-0.361-1.443-1.014-2.682-1.963-3.716c-0.898-1.037-2.137-1.825-3.717-2.368
			c-1.574-0.585-3.533-0.876-5.875-0.876c-2.705,0-5.295,0.245-7.773,0.741c-2.478,0.451-4.617,1.083-6.422,1.893l2.098,6.553
			c1.26-0.583,2.859-1.058,4.797-1.417c1.984-0.361,3.853-0.541,5.611-0.541c2.34,0,3.852,0.562,4.525,1.69
			c0.678,1.08,0.857,2.883,0.541,5.407c-2.975-0.136-5.676-0.025-8.109,0.336c-2.387,0.316-4.459,0.923-6.219,1.825
			c-1.711,0.855-3.039,2.004-3.986,3.446c-0.898,1.397-1.35,3.133-1.35,5.204c0,1.484,0.248,2.839,0.742,4.054
			c0.494,1.173,1.193,2.208,2.096,3.106c0.9,0.858,1.978,1.533,3.244,2.029c1.258,0.449,2.682,0.676,4.258,0.676
			c2.522,0,4.57-0.495,6.148-1.484c1.623-1.04,2.885-2.254,3.785-3.651h0.336l1.42,4.66h7.164c-0.543-1.618-0.881-3.331-1.016-5.133
			C307.024,71.162,306.955,69.268,306.955,67.331z M298.709,67.669c-0.492,0.901-1.258,1.758-2.297,2.566
			c-1.035,0.767-2.432,1.15-4.191,1.15c-1.307,0-2.34-0.339-3.105-1.014c-0.723-0.723-1.082-1.711-1.082-2.974
			c0-0.9,0.293-1.645,0.877-2.231c0.586-0.584,1.375-1.035,2.367-1.351c0.99-0.315,2.117-0.517,3.379-0.606
			c1.307-0.091,2.658-0.067,4.053,0.067V67.669z"/>
		<path fill="#939598" d="M326.619,71.119c-0.494,0.087-1.014,0.134-1.555,0.134c-0.9,0-1.553-0.362-1.959-1.082
			c-0.404-0.721-0.607-1.87-0.607-3.448V30.77h-8.785v40.549c0,2.747,0.674,4.73,2.025,5.946c1.35,1.171,3.312,1.757,5.881,1.757
			c1.576,0,3.109-0.182,4.596-0.541c1.486-0.359,2.59-0.72,3.31-1.081l-0.947-6.894C327.815,70.823,327.16,71.027,326.619,71.119z"
			/>
		<path fill="#939598" d="M359.664,67.331c0.045-1.936,0.137-3.896,0.271-5.88c0.133-2.025,0.201-4.032,0.201-6.013
			c0-1.805-0.201-3.427-0.607-4.866c-0.361-1.443-1.014-2.682-1.959-3.716c-0.904-1.037-2.141-1.825-3.717-2.368
			c-1.58-0.585-3.539-0.876-5.881-0.876c-2.701,0-5.293,0.245-7.77,0.741c-2.479,0.451-4.619,1.083-6.424,1.893l2.098,6.553
			c1.26-0.583,2.859-1.058,4.797-1.417c1.984-0.361,3.852-0.541,5.611-0.541c2.342,0,3.852,0.562,4.527,1.69
			c0.674,1.08,0.855,2.883,0.539,5.407c-2.973-0.136-5.676-0.025-8.109,0.336c-2.389,0.316-4.459,0.923-6.219,1.825
			c-1.709,0.855-3.037,2.004-3.984,3.446c-0.902,1.397-1.354,3.133-1.354,5.204c0,1.484,0.25,2.839,0.744,4.054
			c0.496,1.173,1.193,2.208,2.096,3.106c0.9,0.858,1.982,1.533,3.244,2.029c1.262,0.449,2.68,0.676,4.256,0.676
			c2.523,0,4.574-0.495,6.148-1.484c1.623-1.04,2.887-2.254,3.787-3.651h0.336l1.422,4.66h7.162
			c-0.543-1.618-0.879-3.331-1.014-5.133C359.731,71.162,359.664,69.268,359.664,67.331z M351.418,67.669
			c-0.494,0.901-1.26,1.758-2.297,2.566c-1.035,0.767-2.432,1.15-4.188,1.15c-1.307,0-2.344-0.339-3.109-1.014
			c-0.723-0.723-1.082-1.711-1.082-2.974c0-0.9,0.291-1.645,0.881-2.231c0.584-0.584,1.371-1.035,2.361-1.351
			c0.992-0.315,2.117-0.517,3.379-0.606c1.309-0.091,2.66-0.067,4.055,0.067V67.669z"/>
		<path fill="#939598" d="M376.557,31.447c-1.037-0.944-2.408-1.418-4.121-1.418c-1.711,0-3.062,0.474-4.053,1.418
			c-0.947,0.9-1.422,2.006-1.422,3.313c0,1.306,0.475,2.409,1.422,3.312c0.99,0.853,2.342,1.283,4.053,1.283
			c1.713,0,3.084-0.43,4.121-1.283c1.082-0.902,1.625-2.006,1.625-3.312C378.182,33.453,377.639,32.347,376.557,31.447z"/>
		<rect x="368.244" y="44.287" fill="#939598" width="8.787" height="33.79"/>
		<path fill="#939598" d="M403.77,60.101c-1.127-0.812-2.367-1.464-3.717-1.961c-1.352-0.494-2.594-0.945-3.717-1.349
			c-1.129-0.453-2.074-0.926-2.84-1.422c-0.764-0.494-1.15-1.147-1.15-1.958c0-2.028,1.309-3.043,3.924-3.043
			c1.619,0,3.219,0.227,4.797,0.676c1.576,0.451,2.883,0.88,3.918,1.284l1.961-6.353c-1.174-0.674-2.795-1.284-4.867-1.825
			c-2.072-0.538-4.391-0.81-6.961-0.81c-3.74,0-6.6,0.879-8.58,2.635c-1.984,1.758-2.975,4.303-2.975,7.637
			c0,2.029,0.383,3.693,1.15,5.001c0.766,1.262,1.713,2.319,2.836,3.176c1.127,0.812,2.367,1.464,3.719,1.962
			c1.35,0.448,2.588,0.9,3.715,1.352c1.127,0.447,2.072,0.945,2.838,1.485c0.766,0.543,1.15,1.26,1.15,2.163
			c0,1.17-0.404,2.005-1.219,2.501c-0.762,0.494-1.799,0.741-3.105,0.741c-1.803,0-3.56-0.27-5.273-0.811
			c-1.709-0.585-3.086-1.17-4.123-1.756l-2.43,6.554c1.303,0.812,2.996,1.509,5.066,2.096c2.119,0.631,4.371,0.945,6.76,0.945
			c4.371,0,7.635-0.97,9.797-2.907c2.205-1.978,3.312-4.685,3.312-8.108c0-1.983-0.385-3.604-1.148-4.863
			C405.842,61.88,404.895,60.868,403.77,60.101z"/>
		<path fill="#939598" d="M438.188,69.359c0-2.299,0.066-4.732,0.203-7.3c0.137-2.566,0.203-5.202,0.203-7.904
			c0-1.218-0.135-2.434-0.406-3.651c-0.225-1.214-0.719-2.318-1.488-3.308c-0.721-1.039-1.799-1.872-3.244-2.504
			c-1.395-0.63-3.266-0.945-5.607-0.945c-2.478,0-4.863,0.249-7.164,0.742c-2.252,0.497-4.234,1.262-5.945,2.299l1.69,4.055
			c0.629-0.36,1.352-0.677,2.162-0.944c0.855-0.317,1.736-0.564,2.635-0.745c0.945-0.223,1.848-0.382,2.703-0.474
			c0.9-0.135,1.734-0.2,2.5-0.2c2.613,0,4.416,0.492,5.408,1.486c0.988,0.99,1.486,2.724,1.486,5.204
			c0,1.081-0.068,2.296-0.205,3.646c-0.627-0.09-1.26-0.135-1.889-0.135c-0.586,0-1.195,0-1.826,0c-2.477,0-4.754,0.18-6.824,0.542
			c-2.029,0.314-3.787,0.878-5.273,1.687c-1.438,0.768-2.566,1.825-3.377,3.179c-0.811,1.308-1.219,2.95-1.219,4.934
			c0,1.483,0.25,2.812,0.746,3.985c0.539,1.17,1.26,2.184,2.16,3.041c0.902,0.81,1.961,1.44,3.176,1.892
			c1.262,0.449,2.615,0.676,4.055,0.676c1.443,0,2.727-0.157,3.853-0.476c1.129-0.312,2.117-0.696,2.973-1.146
			c0.855-0.495,1.576-1.037,2.164-1.622c0.631-0.63,1.148-1.262,1.553-1.893h0.338l1.42,4.73h3.986
			c-0.361-1.263-0.605-2.634-0.742-4.122C438.254,72.601,438.188,71.027,438.188,69.359z M433.117,68.547
			c-0.223,0.587-0.586,1.193-1.078,1.825c-0.453,0.63-1.037,1.218-1.758,1.756c-0.719,0.496-1.578,0.924-2.568,1.285
			c-0.99,0.314-2.117,0.474-3.379,0.474c-1.756,0-3.197-0.497-4.324-1.486c-1.127-1.036-1.69-2.345-1.69-3.921
			c0-1.127,0.293-2.049,0.877-2.771c0.633-0.766,1.441-1.35,2.434-1.758c1.037-0.45,2.209-0.741,3.514-0.877
			c1.354-0.182,2.727-0.272,4.123-0.272c0.631,0,1.26,0.023,1.893,0.069c0.676,0,1.33,0.021,1.957,0.067V68.547z"/>
		<path fill="#939598" d="M456.512,74.021c-0.674,0.091-1.305,0.137-1.891,0.137c-0.992,0-1.756-0.34-2.297-1.015
			c-0.541-0.677-0.81-1.804-0.81-3.379V30.77h-5.406v40.549c0,2.747,0.652,4.708,1.959,5.879c1.307,1.125,2.975,1.689,5,1.689
			c0.947,0,2.051-0.113,3.312-0.338c1.307-0.226,2.318-0.517,3.041-0.877l-0.609-4.258
			C457.955,73.728,457.188,73.931,456.512,74.021z"/>
		<path fill="#939598" d="M486.43,48.342c-1.213-1.577-2.77-2.771-4.662-3.581c-1.846-0.857-4.031-1.282-6.555-1.282
			c-4.775,0-8.447,1.529-11.014,4.593c-2.523,3.019-3.785,7.39-3.785,13.111c0,2.655,0.293,5.091,0.879,7.297
			c0.584,2.163,1.486,4.034,2.703,5.609c1.217,1.53,2.748,2.726,4.596,3.582c1.891,0.81,4.098,1.215,6.621,1.215
			c4.775,0,8.426-1.509,10.949-4.527c2.568-3.062,3.852-7.456,3.852-13.176c0-2.658-0.293-5.068-0.879-7.232
			C488.551,51.743,487.649,49.875,486.43,48.342z M475.213,74.158c-1.666,0-3.086-0.36-4.256-1.081
			c-1.172-0.721-2.119-1.667-2.84-2.841c-0.721-1.171-1.262-2.544-1.621-4.121c-0.314-1.578-0.475-3.222-0.475-4.932
			c0-8.695,3.065-13.022,9.191-12.976c1.668,0,3.086,0.359,4.26,1.082c1.17,0.676,2.113,1.598,2.836,2.77
			c0.721,1.172,1.24,2.546,1.555,4.121c0.361,1.577,0.541,3.246,0.541,5.003C484.404,69.878,481.34,74.201,475.213,74.158z"/>
		<path fill="#939598" d="M499.147,30.232c-1.082,0-1.982,0.382-2.701,1.146c-0.68,0.723-1.016,1.601-1.016,2.638
			c0,1.037,0.336,1.892,1.016,2.566c0.719,0.678,1.619,1.012,2.701,1.012s2.004-0.334,2.77-1.012
			c0.766-0.675,1.148-1.529,1.148-2.566c0-1.037-0.383-1.915-1.148-2.638C501.15,30.614,500.229,30.232,499.147,30.232z"/>
		<rect x="496.578" y="44.287" fill="#939598" width="5.406" height="33.79"/>
		<path fill="#939598" d="M525.377,73.818c-0.809,0.227-1.801,0.34-2.971,0.34c-1.398,0-2.391-0.474-2.977-1.419
			c-0.584-0.992-0.877-2.66-0.877-5.004V49.017h9.189v-4.73h-9.189v-8.244l-5.406,1.552v6.692h-5.272v4.73h5.272v19.734
			c0,3.65,0.562,6.262,1.688,7.837c1.127,1.533,3.064,2.298,5.812,2.298c1.668,0,3.223-0.179,4.662-0.541
			c1.445-0.359,2.772-0.831,3.986-1.419l-1.215-4.121C527.09,73.21,526.188,73.549,525.377,73.818z"/>
		<path fill="#939598" d="M554.637,45.909c-1.215-0.946-2.59-1.575-4.121-1.893c-1.531-0.358-3.064-0.537-4.596-0.537
			c-4.775,0-8.447,1.507-11.018,4.525c-2.564,3.018-3.848,7.411-3.848,13.179c0,2.702,0.291,5.134,0.877,7.297
			c0.586,2.163,1.488,4.034,2.701,5.609c1.221,1.53,2.771,2.726,4.662,3.582c1.895,0.81,4.125,1.215,6.691,1.215
			c2.299,0,4.463-0.316,6.488-0.945c2.072-0.63,3.787-1.488,5.135-2.567l-2.025-3.918c-0.766,0.718-1.916,1.35-3.447,1.891
			c-1.531,0.541-3.064,0.811-4.594,0.811c-1.982,0-3.674-0.27-5.07-0.811c-1.35-0.585-2.457-1.397-3.311-2.433
			c-0.855-1.083-1.488-2.387-1.893-3.92c-0.404-1.533-0.605-3.29-0.605-5.271h21.689c0.27-1.803,0.408-3.447,0.408-4.932
			c0-2.841-0.385-5.114-1.152-6.826C556.846,48.208,555.854,46.857,554.637,45.909z M536.731,57.465
			c0.316-3.381,1.26-5.767,2.836-7.164c1.623-1.395,3.762-2.094,6.42-2.094c2.391,0,4.236,0.699,5.543,2.094
			c1.305,1.351,1.961,3.742,1.961,7.164H536.731z"/>
		<path fill="#939598" d="M566.481,71.519c-1.19,0-2.148,0.365-2.881,1.096c-0.684,0.689-1.027,1.647-1.027,2.883
			c0,1.187,0.344,2.148,1.027,2.878c0.732,0.729,1.691,1.098,2.881,1.098c1.234,0,2.215-0.369,2.949-1.098
			c0.732-0.729,1.096-1.691,1.096-2.878c0-1.236-0.363-2.194-1.096-2.883C568.695,71.884,567.715,71.519,566.481,71.519z"/>
		<path fill="#939598" d="M586.336,30.24c-1.83,0-3.361,0.25-4.594,0.754c-1.234,0.458-2.24,1.189-3.02,2.194
			c-0.773,0.96-1.348,2.218-1.711,3.772c-0.324,1.556-0.482,3.382-0.482,5.483v1.921h-5.348v4.802h5.348v29.484h5.486V49.167h9.121
			v-4.802h-9.121v-0.961c0-1.371,0.02-2.559,0.068-3.564c0.092-1.052,0.271-1.921,0.549-2.605c0.32-0.732,0.799-1.28,1.44-1.644
			c0.685-0.37,1.623-0.55,2.812-0.55c0.82,0,1.691,0.068,2.605,0.204c0.957,0.137,1.965,0.436,3.018,0.891l1.232-4.591
			c-1.232-0.504-2.424-0.85-3.562-1.03C589.078,30.331,587.799,30.24,586.336,30.24z"/>
		<path fill="#939598" d="M603.41,31.266c-0.777-0.776-1.717-1.164-2.812-1.164c-1.098,0-2.01,0.388-2.744,1.164
			c-0.684,0.733-1.029,1.626-1.029,2.678c0,1.051,0.346,1.917,1.029,2.604c0.734,0.686,1.646,1.026,2.744,1.026
			c1.096,0,2.035-0.341,2.812-1.026c0.775-0.688,1.164-1.554,1.164-2.604C604.574,32.892,604.186,31.999,603.41,31.266z"/>
		<rect x="597.992" y="44.365" fill="#939598" width="5.486" height="34.286"/>
	</g>
</g>
</svg>
