<?xml version="1.0" encoding="utf-8"?>
<!-- Generator: Adobe Illustrator 17.0.0, SVG Export Plug-In . SVG Version: 6.00 Build 0)  -->
<!DOCTYPE svg PUBLIC "-//W3C//DTD SVG 1.1//EN" "http://www.w3.org/Graphics/SVG/1.1/DTD/svg11.dtd">
<svg version="1.1" id="_x2014_ÎÓÈ_1" xmlns="http://www.w3.org/2000/svg" xmlns:xlink="http://www.w3.org/1999/xlink" x="0px"
	 y="0px" width="699.981px" height="123.939px" viewBox="0 0 699.981 123.939" enable-background="new 0 0 699.981 123.939"
	 xml:space="preserve">
<g>
	<g>
		<path fill="#087480" d="M48.78,80.782c8.573,4.647,26.965,6.714,26.138-6.22c-0.336-5.27-14.95-4.677-18.333-5.128
			c-6.959-0.925-14.51-3.614-14.51-12.356c0-4.615,0.967-8.131,2.871-11.376c-3.173-2.059-5.333-5.245-5.333-10.167
			c0-22.636,28.416-19.594,41.91-13.931l0.751,0.326c0.102,0.841,0.152,1.699,0.152,2.569c0,2.556-0.451,5.009-1.279,7.279
			l-3.323-1.451c-6.891-2.893-31.68-9.376-28.738,5.207c1.152,5.703,14.952,4.679,18.339,5.13
			c6.953,0.922,14.504,3.613,14.504,12.354c0,4.615-0.964,8.134-2.871,11.374c3.17,2.06,5.34,5.251,5.34,10.169
			c0,4.136-0.925,7.485-2.536,10.141c2.404-2.487,5.164-3.664,7.292-2.061c6.178,4.642-13.344,22.644-24.508,30.744
			c-3.854,2.798-0.689,5.423,2.171,3.226c6.11-4.694,14.053-11.533,22.849-21.776c5.148-5.995,8.523-8.516,11.46-6.11
			c2.621,2.148,1.365,5.371-3.24,10.46c-0.663,0.733-8.687,10.188-19.003,19.012c-2.87,2.456-1.269,3.612,0.122,3.371
			c0.155-0.044,0.309-0.092,0.464-0.138c0.051-0.022,0.103-0.047,0.152-0.074c4.988-2.792,12.959-10.377,18.908-16.819
			c5.097-5.52,9.057-4.427,10.229-1.933c9.456-10.88,15.184-25.088,15.184-40.635C123.941,27.743,96.195,0,61.969,0
			C27.744,0,0,27.743,0,61.969c0,16.195,6.214,30.937,16.388,41.976C36.913,82.404,43.574,77.96,48.78,80.782z"/>
		<path fill="#087480" d="M69.371,49.754l-16.178-2.311c-6.363,11.409,0.751,12.302,0.751,12.302l16.272,2.313
			C76.643,51.238,69.371,49.754,69.371,49.754z"/>
		<path fill="#087480" d="M58.364,104.5c11.015-7.155,13.098-9.677,17.715-14.279c-7.846,4.426-19.87,3.519-29.974-0.29
			c-1.284,1.156-2.693,2.021-3.571,2.791C25.419,107.679,39.657,116.658,58.364,104.5z"/>
		<g>
			<path fill="#FFFFFF" d="M98.528,104.536c-5.949,6.442-13.92,14.027-18.908,16.819c-0.05,0.027-0.102,0.052-0.152,0.074
				c11.508-3.38,21.625-10.008,29.29-18.826C107.585,100.109,103.625,99.017,98.528,104.536z"/>
			<path fill="#FFFFFF" d="M78.882,118.196c10.316-8.824,18.34-18.279,19.003-19.012c4.605-5.089,5.861-8.311,3.24-10.46
				c-2.937-2.405-6.312,0.115-11.46,6.11c-8.796,10.243-16.738,17.082-22.849,21.776c-2.859,2.197-6.025-0.428-2.171-3.226
				c11.164-8.1,30.686-26.102,24.508-30.744c-2.128-1.603-4.888-0.426-7.292,2.061c1.611-2.655,2.536-6.005,2.536-10.141
				c0-4.918-2.17-8.109-5.34-10.169c1.907-3.24,2.871-6.759,2.871-11.374c0-8.741-7.551-11.433-14.504-12.354
				c-3.387-0.451-17.186,0.573-18.339-5.13c-2.941-14.583,21.848-8.1,28.738-5.207l3.323,1.451c0.828-2.271,1.279-4.724,1.279-7.279
				c0-0.87-0.051-1.729-0.152-2.569l-0.751-0.326c-13.494-5.663-41.91-8.705-41.91,13.931c0,4.922,2.16,8.108,5.333,10.167
				c-1.904,3.245-2.871,6.761-2.871,11.376c0,8.742,7.551,11.432,14.51,12.356c3.383,0.451,17.997-0.142,18.333,5.128
				c0.827,12.934-17.564,10.867-26.138,6.22c-5.206-2.822-11.867,1.622-32.393,23.162c11.322,12.293,27.551,19.995,45.581,19.995
				c5.907,0,11.623-0.828,17.035-2.372C77.613,121.809,76.012,120.652,78.882,118.196z M70.217,62.059l-16.272-2.313
				c0,0-7.114-0.893-0.751-12.302l16.178,2.311C69.371,49.754,76.643,51.238,70.217,62.059z M58.364,104.5
				c-18.707,12.158-32.945,3.179-15.83-11.778c0.878-0.77,2.287-1.635,3.571-2.791c10.104,3.809,22.128,4.716,29.974,0.29
				C71.462,94.823,69.379,97.345,58.364,104.5z"/>
		</g>
	</g>
	<g>
		<path fill="#939598" d="M681.742,31.027c-1.83,0-3.361,0.251-4.594,0.754c-1.234,0.459-2.24,1.189-3.018,2.195
			c-0.775,0.96-1.35,2.218-1.713,3.771c-0.322,1.556-0.482,3.383-0.482,5.484v1.921h-5.348v4.801h5.348v29.485h5.488V49.954h9.119
			v-4.801h-9.119v-0.96c0-1.372,0.02-2.559,0.068-3.566c0.09-1.052,0.271-1.92,0.549-2.604c0.32-0.733,0.799-1.282,1.438-1.646
			c0.686-0.369,1.625-0.549,2.811-0.549c0.822,0,1.693,0.068,2.607,0.204c0.959,0.137,1.967,0.435,3.019,0.891l1.232-4.592
			c-1.232-0.504-2.426-0.849-3.564-1.03C684.484,31.12,683.205,31.027,681.742,31.027z"/>
		<rect x="693.4" y="45.153" fill="#939598" width="5.484" height="34.286"/>
		<path fill="#939598" d="M698.816,32.055c-0.777-0.776-1.715-1.164-2.81-1.164c-1.1,0-2.012,0.388-2.746,1.164
			c-0.684,0.732-1.027,1.625-1.027,2.677c0,1.051,0.344,1.918,1.027,2.605c0.734,0.687,1.646,1.026,2.746,1.026
			c1.096,0,2.033-0.34,2.81-1.026c0.775-0.688,1.164-1.555,1.164-2.605C699.981,33.68,699.592,32.787,698.816,32.055z"/>
		<path fill="#939598" d="M194.537,46.868c-0.844-1.113-1.934-1.896-3.273-2.352c-1.342-0.454-2.967-0.682-4.875-0.682
			c-2.318,0-4.295,0.522-5.932,1.567c-1.637,1.047-2.977,2.455-4.023,4.228c-0.772-2.09-1.852-3.579-3.236-4.466
			c-1.387-0.887-3.172-1.329-5.352-1.329c-2.547,0-4.627,0.545-6.238,1.636c-1.615,1.091-2.945,2.364-3.988,3.818h-0.273l-1.023-4.5
			h-6.885v34.088h8.863V56.175c0.498-1.317,1.227-2.397,2.182-3.238c0.953-0.841,2.203-1.262,3.75-1.262
			c1.863,0,3.09,0.659,3.682,1.978c0.59,1.318,0.885,3.545,0.885,6.681v18.544h8.863V56.516c0.453-1.5,1.147-2.682,2.08-3.545
			c0.93-0.863,2.191-1.296,3.783-1.296c1.953,0,3.215,0.671,3.783,2.012c0.568,1.341,0.853,3.352,0.853,6.033v19.157h8.861V58.425
			c0-2.864-0.205-5.227-0.613-7.091C196.002,49.471,195.377,47.983,194.537,46.868z"/>
		<path fill="#939598" d="M227.481,46.767c-1.273-1.045-2.729-1.795-4.363-2.25c-1.637-0.454-3.318-0.682-5.045-0.682
			c-5.182,0-9.205,1.5-12.068,4.5c-2.863,2.999-4.295,7.499-4.295,13.498c0,5.591,1.271,9.988,3.818,13.192
			c2.545,3.204,6.566,4.807,12.068,4.807c2.635,0,5.123-0.375,7.465-1.125c2.34-0.75,4.191-1.671,5.557-2.762l-2.932-5.795
			c-0.773,0.592-1.9,1.171-3.375,1.739c-1.479,0.568-3.148,0.852-5.012,0.852c-3,0-5.172-0.727-6.512-2.182
			c-1.34-1.454-2.078-3.613-2.215-6.477h20.453c0.227-1.182,0.396-2.317,0.512-3.409c0.111-1.091,0.17-2.113,0.17-3.067
			c0-2.636-0.387-4.841-1.16-6.613C229.773,49.221,228.752,47.812,227.481,46.767z M223.457,58.56h-12.68
			c0.227-2.318,0.896-4.169,2.01-5.557c1.113-1.385,2.83-2.079,5.148-2.079c2,0,3.465,0.659,4.396,1.978
			C223.264,54.221,223.639,56.106,223.457,58.56z"/>
		<path fill="#939598" d="M266.143,66.878V31.154h-8.861v13.84c-0.91-0.363-1.82-0.624-2.729-0.784
			c-0.91-0.158-2.068-0.239-3.477-0.239c-5.092,0-8.955,1.614-11.59,4.841c-2.637,3.227-3.955,7.75-3.955,13.567
			c0,5.999,1.182,10.408,3.547,13.226c2.361,2.818,5.68,4.228,9.953,4.228c2.316,0,4.328-0.489,6.033-1.466
			c1.703-0.977,3.01-2.261,3.92-3.853h0.272l1.228,4.432h6.34c-0.363-2.317-0.568-4.432-0.613-6.34
			C266.164,70.696,266.143,68.787,266.143,66.878z M257.281,67.424c-0.41,1.591-1.115,2.807-2.115,3.647
			c-1,0.842-2.363,1.262-4.09,1.262c-2.229,0-3.852-0.887-4.875-2.659c-1.023-1.772-1.533-4.113-1.533-7.022
			c0-4.091,0.623-6.977,1.875-8.658c1.248-1.682,3.123-2.522,5.625-2.522c1.227,0,2.227,0.126,2.998,0.375
			c0.773,0.25,1.477,0.625,2.115,1.125V67.424z"/>
		<path fill="#939598" d="M290.41,43.971c-1.818,0-3.477,0.319-4.977,0.955c-1.5,0.637-2.727,1.499-3.682,2.591h-0.273V31.154
			h-8.861v46.223c1.227,0.592,3.045,1.125,5.453,1.603c2.41,0.478,5.068,0.716,7.977,0.716c5.273,0,9.42-1.59,12.443-4.772
			c3.021-3.181,4.533-7.84,4.533-13.976c0-5.728-1.08-9.988-3.238-12.783C297.627,45.368,294.502,43.971,290.41,43.971z
			 M292.014,69.571c-1.252,1.75-3.08,2.625-5.488,2.625c-0.955,0-1.854-0.068-2.693-0.205c-0.842-0.136-1.627-0.386-2.354-0.75
			V56.379c0.547-1.59,1.33-2.806,2.354-3.647c1.021-0.841,2.352-1.261,3.988-1.261c4.045,0,6.068,3.25,6.068,9.749
			C293.889,65.037,293.262,67.822,292.014,69.571z"/>
		<path fill="#939598" d="M335.68,48.777c-1.318-1.567-2.977-2.783-4.977-3.647c-2.002-0.862-4.363-1.295-7.09-1.295
			c-5.092,0-9.047,1.557-11.863,4.67c-2.818,3.114-4.229,7.557-4.229,13.328c0,2.683,0.33,5.137,0.99,7.363
			c0.658,2.228,1.658,4.125,3,5.693c1.34,1.567,3.01,2.784,5.012,3.648c1.998,0.862,4.361,1.295,7.09,1.295
			c5.088,0,9.031-1.557,11.828-4.671c2.795-3.112,4.191-7.556,4.191-13.328c0-2.681-0.33-5.136-0.986-7.362
			C337.986,52.244,336.998,50.346,335.68,48.777z M328.793,69.81c-1.137,1.683-2.863,2.523-5.18,2.523
			c-1.228,0-2.283-0.262-3.172-0.785c-0.885-0.521-1.602-1.261-2.146-2.215c-0.547-0.955-0.955-2.068-1.229-3.341
			c-0.271-1.273-0.408-2.659-0.408-4.159c0-3.726,0.613-6.408,1.842-8.044c1.227-1.637,2.93-2.455,5.113-2.455
			c2.498,0,4.27,0.967,5.316,2.897c1.045,1.933,1.568,4.466,1.568,7.602C330.498,65.47,329.93,68.129,328.793,69.81z"/>
		<path fill="#939598" d="M355.789,45.402c-1.318,0.91-2.365,2.205-3.137,3.887h-0.273l-1.021-4.5h-6.887v34.088h8.863V56.856
			c0.363-1.318,1.08-2.396,2.148-3.238c1.066-0.841,2.395-1.262,3.988-1.262c1.135,0,2.408,0.251,3.818,0.75l1.158-8.317
			c-1.5-0.499-2.842-0.75-4.023-0.75C358.652,44.039,357.106,44.494,355.789,45.402z"/>
		<path fill="#939598" d="M382.836,43.971c-5.545,0-9.771,1.568-12.68,4.704c-2.91,3.136-4.363,7.75-4.363,13.84
			c0,5.818,1.078,10.091,3.238,12.817c2.156,2.727,5.441,4.091,9.852,4.091c4.043,0,6.861-1.067,8.453-3.204h0.272V78.4
			c0,2.408-0.557,4.283-1.67,5.624c-1.113,1.34-3.215,2.012-6.307,2.012c-2.045,0-3.76-0.205-5.147-0.614
			c-1.387-0.408-2.602-0.817-3.646-1.227l-1.842,7.021c0.955,0.5,2.375,0.978,4.262,1.432c1.885,0.454,4.465,0.683,7.738,0.683
			c4.816,0,8.566-1.171,11.248-3.512c2.682-2.341,4.022-5.988,4.022-10.942v-32.86c-1.455-0.546-3.328-1.022-5.623-1.432
			C388.348,44.176,385.744,43.971,382.836,43.971z M387.404,67.696c-0.502,1.546-1.217,2.705-2.148,3.478
			c-0.932,0.772-2.262,1.159-3.988,1.159c-2.045,0-3.613-0.863-4.703-2.592c-1.092-1.727-1.637-4.249-1.637-7.567
			c0-3.726,0.635-6.442,1.908-8.146c1.273-1.704,3.045-2.557,5.318-2.557c2.09,0,3.84,0.296,5.25,0.886V67.696z"/>
		<path fill="#939598" d="M429.588,68.037c0.021-1.954,0.102-3.942,0.238-5.966c0.137-2.021,0.205-4.032,0.205-6.033
			c0-1.817-0.193-3.453-0.58-4.909c-0.387-1.453-1.047-2.703-1.977-3.749c-0.934-1.045-2.193-1.852-3.785-2.42
			c-1.592-0.568-3.568-0.853-5.932-0.853c-2.727,0-5.34,0.238-7.84,0.716c-2.5,0.478-4.658,1.125-6.477,1.943l2.113,6.612
			c1.273-0.59,2.897-1.067,4.875-1.432c1.977-0.363,3.852-0.545,5.625-0.545c2.361,0,3.885,0.558,4.566,1.67
			c0.684,1.114,0.865,2.943,0.547,5.488c-3-0.136-5.717-0.034-8.148,0.307c-2.432,0.341-4.523,0.955-6.272,1.841
			c-1.75,0.887-3.092,2.046-4.021,3.478c-0.934,1.432-1.398,3.193-1.398,5.283c0,1.5,0.25,2.854,0.75,4.057
			c0.5,1.205,1.203,2.25,2.113,3.136c0.908,0.887,2,1.568,3.272,2.046c1.273,0.477,2.705,0.716,4.297,0.716
			c2.543,0,4.623-0.512,6.236-1.534c1.613-1.022,2.875-2.238,3.785-3.647h0.342l1.43,4.704h7.228
			c-0.547-1.637-0.887-3.375-1.023-5.215C429.621,71.89,429.563,69.992,429.588,68.037z M421.234,68.378
			c-0.5,0.91-1.271,1.763-2.316,2.557c-1.047,0.796-2.455,1.193-4.227,1.193c-1.32,0-2.353-0.352-3.103-1.057
			c-0.75-0.704-1.125-1.693-1.125-2.966c0-0.909,0.295-1.658,0.887-2.25c0.59-0.59,1.387-1.045,2.387-1.363
			c0.998-0.317,2.148-0.523,3.443-0.614c1.295-0.09,2.647-0.067,4.055,0.068V68.378z"/>
		<path fill="#939598" d="M447.643,45.402c-1.318,0.91-2.363,2.205-3.137,3.887h-0.272l-1.023-4.5h-6.885v34.088h8.861V56.856
			c0.365-1.318,1.08-2.396,2.148-3.238c1.066-0.841,2.397-1.262,3.988-1.262c1.135,0,2.408,0.251,3.818,0.75l1.158-8.317
			c-1.5-0.499-2.84-0.75-4.021-0.75C450.506,44.039,448.961,44.494,447.643,45.402z"/>
		<path fill="#939598" d="M464.395,30.608c-1.09,0-1.988,0.375-2.691,1.125c-0.705,0.75-1.057,1.647-1.057,2.693
			c0,1.046,0.352,1.909,1.057,2.59c0.703,0.683,1.602,1.023,2.691,1.023c1.092,0,2.023-0.341,2.797-1.023
			c0.772-0.681,1.158-1.544,1.158-2.59c0-1.046-0.387-1.943-1.158-2.693C466.418,30.983,465.486,30.608,464.395,30.608z"/>
		<rect x="461.805" y="44.789" fill="#939598" width="5.455" height="34.088"/>
		<path fill="#939598" d="M499.535,46.902c-0.932-1.09-2.104-1.851-3.512-2.284c-1.41-0.431-3.045-0.647-4.908-0.647
			c-2.547,0-4.738,0.467-6.58,1.397c-1.84,0.933-3.307,2.126-4.396,3.58h-0.273l-1.023-4.159h-3.816v34.088h5.453V55.56
			c0.637-1.953,1.738-3.578,3.307-4.874c1.568-1.296,3.557-1.943,5.965-1.943c2.728,0,4.603,0.898,5.625,2.693
			c1.023,1.796,1.535,4.465,1.535,8.011v19.43h5.453V58.288c0-2.817-0.238-5.147-0.717-6.988
			C501.17,49.459,500.465,47.993,499.535,46.902z"/>
		<path fill="#939598" d="M512.5,30.608c-1.092,0-1.99,0.375-2.693,1.125c-0.705,0.75-1.057,1.647-1.057,2.693
			c0,1.046,0.352,1.909,1.057,2.59c0.703,0.683,1.602,1.023,2.693,1.023c1.09,0,2.022-0.341,2.795-1.023
			c0.771-0.681,1.158-1.544,1.158-2.59c0-1.046-0.387-1.943-1.158-2.693C514.522,30.983,513.59,30.608,512.5,30.608z"/>
		<rect x="509.91" y="44.789" fill="#939598" width="5.453" height="34.088"/>
		<path fill="#939598" d="M539.043,74.548c-0.816,0.251-1.818,0.375-3,0.375c-1.408,0-2.408-0.487-2.998-1.466
			c-0.592-0.977-0.887-2.646-0.887-5.011V49.562h9.272v-4.773h-9.272v-8.317l-5.455,1.568v6.749h-5.318v4.773h5.318v19.907
			c0,3.682,0.568,6.307,1.705,7.874c1.135,1.568,3.09,2.353,5.863,2.353c1.68,0,3.25-0.182,4.703-0.546
			c1.455-0.362,2.797-0.84,4.023-1.431l-1.227-4.159C540.772,73.969,539.863,74.299,539.043,74.548z"/>
		<path fill="#939598" d="M550.963,30.608c-1.092,0-1.99,0.375-2.693,1.125c-0.705,0.75-1.057,1.647-1.057,2.693
			c0,1.046,0.352,1.909,1.057,2.59c0.703,0.683,1.602,1.023,2.693,1.023c1.092,0,2.022-0.341,2.795-1.023
			c0.773-0.681,1.158-1.544,1.158-2.59c0-1.046-0.385-1.943-1.158-2.693C552.984,30.983,552.055,30.608,550.963,30.608z"/>
		<rect x="548.373" y="44.789" fill="#939598" width="5.453" height="34.088"/>
		<path fill="#939598" d="M585.838,70.082c0-2.317,0.068-4.771,0.205-7.362c0.137-2.591,0.205-5.25,0.205-7.977
			c0-1.228-0.125-2.454-0.375-3.682c-0.25-1.228-0.75-2.353-1.5-3.374c-0.75-1.024-1.84-1.853-3.271-2.489
			c-1.432-0.636-3.33-0.954-5.693-0.954c-2.5,0-4.898,0.25-7.193,0.75c-2.295,0.5-4.307,1.272-6.033,2.317l1.705,4.159
			c0.635-0.374,1.373-0.713,2.215-1.017s1.727-0.561,2.66-0.771c0.93-0.211,1.84-0.374,2.727-0.491
			c0.887-0.116,1.715-0.176,2.488-0.176c2.635,0,4.455,0.501,5.453,1.5c1,1.001,1.5,2.751,1.5,5.25c0,1.091-0.066,2.318-0.203,3.682
			c-0.639-0.091-1.262-0.137-1.875-0.137c-0.615,0-1.238,0-1.875,0c-2.5,0-4.785,0.171-6.852,0.512
			c-2.07,0.341-3.842,0.909-5.318,1.704c-1.477,0.796-2.625,1.864-3.441,3.204c-0.82,1.342-1.229,3.012-1.229,5.011
			c0,1.5,0.262,2.842,0.783,4.022c0.523,1.183,1.238,2.193,2.148,3.034c0.908,0.842,1.988,1.489,3.238,1.943
			c1.248,0.453,2.602,0.682,4.057,0.682c1.455,0,2.75-0.16,3.885-0.478c1.137-0.317,2.137-0.716,3-1.193
			c0.865-0.477,1.604-1.022,2.217-1.636c0.613-0.614,1.125-1.238,1.533-1.875h0.342l1.432,4.772h4.021
			c-0.363-1.271-0.613-2.659-0.75-4.159C585.906,73.354,585.838,71.765,585.838,70.082z M580.727,69.265
			c-0.229,0.591-0.58,1.205-1.057,1.841c-0.479,0.637-1.08,1.217-1.807,1.738c-0.729,0.524-1.592,0.954-2.592,1.295
			c-1,0.342-2.137,0.512-3.408,0.512c-1.773,0-3.229-0.512-4.363-1.534c-1.137-1.023-1.705-2.328-1.705-3.92
			c0-1.136,0.307-2.079,0.92-2.829c0.615-0.75,1.432-1.34,2.455-1.773c1.023-0.432,2.203-0.727,3.545-0.887
			c1.34-0.159,2.715-0.238,4.125-0.238c0.637,0,1.283,0.012,1.943,0.034c0.658,0.023,1.305,0.058,1.943,0.103V69.265z"/>
		<path fill="#939598" d="M608.24,74.548c-0.818,0.251-1.816,0.375-3,0.375c-1.408,0-2.408-0.487-2.998-1.466
			c-0.592-0.977-0.887-2.646-0.887-5.011V49.562h9.271v-4.773h-9.271v-8.317L595.9,38.04v6.749h-5.318v4.773h5.318v19.907
			c0,3.682,0.568,6.307,1.705,7.874c1.135,1.568,3.09,2.353,5.863,2.353c1.682,0,3.248-0.182,4.703-0.546
			c1.455-0.362,2.795-0.84,4.023-1.431l-1.229-4.159C609.967,73.969,609.059,74.299,608.24,74.548z"/>
		<path fill="#939598" d="M620.809,30.608c-1.092,0-1.988,0.375-2.693,1.125c-0.705,0.75-1.057,1.647-1.057,2.693
			c0,1.046,0.352,1.909,1.057,2.59c0.705,0.683,1.602,1.023,2.693,1.023c1.09,0,2.022-0.341,2.795-1.023
			c0.771-0.681,1.158-1.544,1.158-2.59c0-1.046-0.387-1.943-1.158-2.693C622.83,30.983,621.898,30.608,620.809,30.608z"/>
		<rect x="618.217" y="44.789" fill="#939598" width="5.455" height="34.088"/>
		<polygon fill="#939598" points="653.869,44.789 646.234,64.628 644.529,71.241 644.461,71.241 642.553,64.765 634.371,44.789 
			628.1,44.789 642.893,79.627 645.211,79.627 659.732,44.789 		"/>
		<path fill="#939598" d="M661.367,71.787c-1.182,0-2.125,0.352-2.83,1.057c-0.703,0.705-1.055,1.67-1.055,2.898
			c0,1.183,0.352,2.137,1.055,2.863c0.705,0.727,1.648,1.091,2.83,1.091c1.227,0,2.203-0.364,2.932-1.091
			c0.727-0.727,1.092-1.681,1.092-2.863c0-1.228-0.365-2.192-1.092-2.898C663.57,72.14,662.594,71.787,661.367,71.787z"/>
	</g>
</g>
<rect x="1129.741" y="3893.95" fill="none" width="4647.334" height="1095.347"/>
<text transform="matrix(1 0 0 1 1129.7412 4204.5029)"><tspan x="0" y="0" fill="#231F20" font-family="'PTSans-Bold'" font-size="443.6486">medborgar</tspan><tspan x="2066.93" y="0" fill="#231F20" font-family="'PTSans-Regular'" font-size="443.6486">initiativ.fi</tspan></text>
</svg>
