<?xml version="1.0" encoding="utf-8"?>
<!-- Generator: Adobe Illustrator 17.0.0, SVG Export Plug-In . SVG Version: 6.00 Build 0)  -->
<!DOCTYPE svg PUBLIC "-//W3C//DTD SVG 1.1//EN" "http://www.w3.org/Graphics/SVG/1.1/DTD/svg11.dtd">
<svg version="1.1" id="Layer_1" xmlns="http://www.w3.org/2000/svg" xmlns:xlink="http://www.w3.org/1999/xlink" x="0px" y="0px"
	 width="120px" height="80px" viewBox="0 0 120 80" enable-background="new 0 0 120 80" xml:space="preserve">
<g>
	<path fill="#FFFFFF" d="M20.555,26.695c-1.024-0.334-1.798-1.673-2.058-2.662c0,0,0.943-0.813,1.08-0.834
		c0,0-0.735-0.371-1.68-1.46c-0.623-0.716-0.978-1.677-0.978-1.677l-0.869,0.757l-2.227,1.893l-2.815-1.267
		c0,0-0.426,3.464-0.026,3.833c0.739,0.684,4.792,2.322,4.792,2.322l4.303,1.466C20.077,29.067,20.499,26.82,20.555,26.695z"/>
	<path fill="#FFFFFF" d="M44.517,6.578c-0.025-0.012-0.051-0.025-0.074-0.035c-1.11-0.5-2.473,0.1-3.082,1.34
		c-0.09-0.218-0.299-0.646-0.626-0.813c-0.549-0.287-1.033-0.072-1.379,0.128c0.253,0.243,0.545,0.647,0.521,1.256
		c-0.03,0.867-0.424,1.597-0.88,1.629c-0.454,0.033-0.799-0.646-0.767-1.513c0.005-0.179,0.028-0.354,0.067-0.517l-0.063-0.026
		c-0.1,0.135-0.215,0.266-0.347,0.389c-0.639,0.596-1.381,0.786-1.654,0.427c-0.278-0.362,0.044-1.103,0.653-1.731
		c0.623-0.64,1.675-0.392,1.687-0.377c0.38-1.647-0.98-1.585-0.98-1.585c0.244-0.107,0.508-0.741,0.552-1.138
		c0.12-1.054-0.288-1.706-0.452-1.782c-0.002-0.004-0.007-0.002-0.011-0.004c-0.005-0.002-0.007-0.005-0.009-0.005
		c-0.167-0.072-0.932,0.053-1.65,0.836c-0.273,0.296-0.582,0.91-0.5,1.163c0,0-0.85-1.056-1.849,0.317
		c0.019-0.004,0.903,0.619,0.827,1.503c-0.077,0.867-0.426,1.597-0.881,1.629c-0.456,0.033-0.799-0.644-0.769-1.511
		c0.007-0.181,0.032-0.355,0.065-0.519L32.858,5.61c-0.102,0.135-0.218,0.267-0.352,0.392c-0.637,0.595-1.376,0.785-1.654,0.424
		c-0.273-0.361,0.021-1.135,0.658-1.731c0.445-0.417,0.943-0.47,1.298-0.436c-0.077-0.392-0.236-0.894-0.816-1.119
		c-0.341-0.128-0.804-0.004-1.027,0.072c0.54-1.27,0.097-2.683-1.015-3.181C29.927,0.019,29.901,0.011,29.874,0
		c0.118,1.587-0.081,3.346-0.614,5.137V5.135c-0.225,0.755-0.369,1.114-0.718,1.87c-0.15,0.333-0.487,0.709-0.656,1.026l5.851,2.628
		c0.973-0.99,2.832-1.179,4.572-0.382l-0.996,2.037c0.074,0.035,0.116,0.054,0.116,0.054c0.033,0.021,0.07,0.041,0.104,0.06
		L38,12.64c0.551,0.199,1.156,0.252,1.766,0.137c0.028-0.065,0.06-0.135,0.1-0.222c0.345-0.756,0.735-1.469,1.161-2.134
		l-0.002,0.002C42.032,8.846,43.236,7.539,44.517,6.578z"/>
	<path fill="#FFFFFF" d="M53.982,0.16l-3.285-0.088L39.054,2.947c0.055,0.26,0.077,0.577,0.035,0.943
		c-0.044,0.398-0.308,1.031-0.553,1.138c0,0,0.852-0.039,1.019,0.764l11.863-3.413l2.641-1.789L53.982,0.16z"/>
	<path fill="#FFFFFF" d="M27.969,5.855l-9.275,2.498l-0.464-1.699c-0.037-0.533,0.227-0.961,0.649-1.275
		c0,0-1.587-1.687-2.278-1.488c-0.639,0.179-1.128,2.428-1.128,2.428c0.517,0.06,0.961,0.288,1.202,0.758l1.692,6.212
		c0.032,0.528-0.234,0.948-0.651,1.263c0,0,1.564,1.689,2.204,1.52c0.697-0.181,1.207-2.44,1.207-2.44
		c-0.523-0.056-0.966-0.29-1.205-0.769l-0.463-1.7l6.404-1.74L27.969,5.855z"/>
	<path fill="#FFFFFF" d="M54.828,54.001c1.532-0.392,2.488-1.469,2.862-3.103c-0.839,0.589-1.605,0.713-2.692,0.5
		c-0.412-0.079-0.931-0.171-1.277-0.364c0.035-1.112,0.062-2.162,0.026-2.407c-0.081-0.533,0.111-1.937-0.931-2
		c-0.447-0.026-3.123,0.834-3.23,0.821c-0.959-0.111-1.068-0.547-1.26-0.971c-0.229-0.507-1.205-2.862-1.205-2.862
		s-0.658-1.916-1.094-3.614c-0.104-0.401-0.329-1.355-0.406-1.611c4.041,0,7.678-3.515,7.663-7.714
		c-0.005-1.279-0.324-2.862-0.916-3.879l-1.956,0.283c0.695,0.925,1.121,2.28,1.121,3.54c0,3.125-2.558,5.656-5.714,5.656
		c-0.377,0-0.746-0.037-1.103-0.106c-0.38-0.709-1.249-1.524-2.444-1.992c-1.121-0.44-1.525-0.336-2.847-0.85
		c-2.111-0.821-4.17-3.258-5.471-5.593c-0.193-0.348-0.317-0.649-0.389-0.853c0.25,0.104,0.484,0.243,0.697,0.422
		c0.332,0.278,0.584,0.621,0.751,1.005c1.173-1.471,1.186-3.45,0.053-4.574c0.536,0.1,1.043,0.327,1.476,0.69
		c0.389,0.324,0.683,0.727,0.878,1.175c1.408-1.763,0.5-4.564-0.813-6.096c0.287,0.12,0.874,0.055,1.56,0.765
		c0.563,0.588,0.7,1.103,0.896,1.552c1.437-1.8,1.385-4.254-0.137-5.528c-0.306-0.253-0.647-0.442-1.008-0.567
		c0.209-0.06,0.419-0.137,0.624-0.241c1.061-0.521,1.854-1.499,2.254-2.632c-0.222,0.174-0.463,0.325-0.716,0.452
		c-1.2,0.587-2.665,0.294-3.631-0.406l1.107-2.266c-1.629-0.744-3.228-0.32-3.811,0.872c-0.012,0.025-0.023,0.053-0.034,0.079
		c-0.007,0.007-0.012,0.012-0.012,0.012l-1.726-0.763l-4.375-1.962c0,0-0.574-0.431-1.149,1.46
		c-0.795,1.048-3.248,4.099-3.306,4.229c-0.384,0.876,0.062,1.027,0.062,1.027l0.753,0.164c0,0-0.104,0.677,0.083,1.177
		c0.355,0.959,1.395,0.547,1.395,0.547s0.487,0.941,0.644,1.246c0,0,0.014-0.41,0.295-0.82c0.403-0.535,0.999-0.755,1.62-0.755
		c1.369,0,2.479,1.379,2.479,3.08c0,1.701-1.11,3.081-2.479,3.081c-1.073,0-1.986-0.848-2.331-2.034l-0.802-0.019l-0.28,1.314
		c-0.489,1.27-1.559,2.178-2.82,2.178c-0.663,0-1.513-0.042-2.02-0.454c0.373,1.413,1.532,2.586,3.462,2.299
		c-0.062,0.1-0.438,0.329-0.89,0.876c-0.888,1.077-0.575,2.408-0.575,2.408s1.97-1.142,3.026-1.518
		c1.726-0.616,2.382-0.452,2.382-0.452s-0.969,0.463-2.037,1.087c-0.793,0.466-2.625,2.345-4.873,3.395
		c-1.195,0.415-1.661,0.574-2.572,0.658c-4.381,0.396-5.07-1.274-5.616-1.91c-0.494-0.574-1.684-2.217-2.109-2.6
		c-0.155-0.141-0.389-0.292-0.574-0.35v-0.005c-0.584-0.229-1.258-0.289-1.902-0.127c-0.744,0.19-1.297,0.637-1.573,1.194
		c0.157-0.072,0.326-0.134,0.503-0.178c0.347-0.09,0.705-0.106,1.057-0.062c-0.213,0.216-0.345,0.512-0.345,0.841
		c0,0.093,0.012,0.185,0.032,0.273c0.104,0.566,0.681,0.999,1.378,0.999c0.079,0,0.368,0.005,0.438,0.014
		c0.774,0.092,1.4,0.644,0.793,1.233c-0.464,0.45-2.178-0.76-2.834-1.119c-0.419-0.227-1.244-0.456-1.833-0.429
		c-0.195,0.009-0.431,0.053-0.607,0.109l-0.002-0.005c-0.61,0.178-1.189,0.547-1.603,1.078c-0.48,0.612-0.644,1.314-0.519,1.932
		c0.077-0.155,0.176-0.308,0.29-0.454c0.195-0.25,0.435-0.461,0.697-0.633c0.049,0.188,0.134,0.364,0.248,0.522
		c0.259,0.47,0.771,0.739,1.391,0.714c0.019,0,0.037,0.002,0.056,0.002c0.396,0,0.758-0.123,1.05-0.329
		c0.081-0.044,0.162-0.09,0.243-0.142c0.822-0.535,1.904,0.373,1.958,0.876c0.095,0.903-0.916,1.177-1.379,1.566
		c-0.398,0.334-0.662,0.802-0.716,1.281c-0.062,0.531,0.06,1.047,0.292,1.559c0.309,0.684,0.836,1.14,1.42,1.309
		c-0.097-0.137-0.185-0.287-0.259-0.452c-0.1-0.223-0.167-0.459-0.206-0.698c0.03,0.007,0.058,0.016,0.09,0.021
		c0.167,0.062,0.35,0.107,0.538,0.097c1.807-0.111,1.603-1.657,1.712-2.095c0.419-1.673,2.458-1.219,2.957-1.094
		c0.273,0.069,1.557,0.336,0.957,0.89c-0.533,0.491-0.888,0.573-0.943,1.437c-0.039,0.596,0.635,1.087,1.221,1.142
		c-0.234,0.239-0.507,0.443-0.813,0.588c-0.165,0.076-0.329,0.135-0.493,0.176c0.554,0.25,1.251,0.246,1.93-0.074
		c0.278-0.13,0.618-0.382,0.987-0.711c1.629-1.437,1.342-3.422,1.177-3.531c0,0,1.348-0.19,3.276-0.391
		c0.846,1.663,2.604,2.548,4.518,2.219c-0.823-0.519-1.333-1.137-1.589-2.143c0.954,1.265,2.359,1.812,4.011,1.527
		c-0.829-0.523-1.258-1.207-1.509-2.224c0.452-0.032,0.931-0.241,1.181-0.146c1.395,0.535,2.206,0.917,3.559,1.48
		c3.394,1.413,6.55,0.005,6.789,1.26c0.605,3.17,1.745,6.047,2.106,6.727c1.89,3.573,3.851,3.987,8.017,5.345
		c3.892,1.267,4.138,4.511,2.498,5.822c0,0-2.011,1.304-4.308-0.389c-0.677-0.496-2.715-1.497-3.313-1.694
		c-0.222-0.072-0.523-0.118-0.73-0.093l-0.002-0.005c-0.681,0.032-1.367,0.282-1.914,0.746c-0.631,0.536-0.954,1.249-0.95,1.948
		c0.114-0.146,0.248-0.287,0.401-0.417c0.294-0.248,0.637-0.429,0.999-0.547c-0.102,0.32-0.086,0.684,0.072,1.02
		c0.044,0.097,0.1,0.185,0.164,0.264c0.375,0.535,1.147,0.712,1.826,0.392c0.077-0.037,0.361-0.164,0.433-0.188
		c0.797-0.264,1.677,0.016,1.37,0.897c-0.234,0.677-2.489,0.225-3.302,0.16c-0.517-0.041-1.434,0.106-1.993,0.403
		c-0.186,0.1-0.394,0.252-0.538,0.391l-0.004-0.003c-0.51,0.464-0.894,1.108-1.04,1.842c-0.169,0.85,0.009,1.645,0.431,2.222
		c0.002-0.197,0.023-0.396,0.063-0.602c0.069-0.345,0.199-0.672,0.371-0.969c0.139,0.173,0.308,0.313,0.494,0.42
		c0.48,0.362,1.108,0.403,1.701,0.093c0.019-0.009,0.037-0.016,0.056-0.025c0.385-0.183,0.677-0.475,0.864-0.82
		c0.056-0.083,0.113-0.167,0.165-0.259c0.542-0.927,2.036-0.496,2.333-0.004c0.53,0.881-0.324,1.629-0.584,2.241
		c-0.225,0.524-0.255,1.124-0.077,1.64c0.197,0.574,0.566,1.047,1.04,1.464c0.633,0.56,1.365,0.785,2.018,0.688
		c-0.162-0.095-0.32-0.209-0.473-0.343c-0.206-0.183-0.385-0.394-0.538-0.621c0.034-0.005,0.065-0.01,0.097-0.019
		c0.195-0.016,0.394-0.051,0.574-0.151c1.706-0.943,0.756-2.433,0.651-2.934c-0.403-1.905,1.803-2.38,2.349-2.482
		c0.301-0.056,1.68-0.373,1.363,0.47c-0.28,0.753-0.587,0.999-0.222,1.909c0.251,0.63,1.147,0.823,1.742,0.609
		c-0.111,0.354-0.278,0.688-0.507,0.976c-0.123,0.155-0.255,0.29-0.394,0.408c0.663,0,1.339-0.324,1.845-0.964
		c0.206-0.262,0.415-0.677,0.616-1.182c0.89-2.225-0.359-3.96-0.565-4.162c0,0-0.774-0.711,0.178-0.996
		c0.079-0.024,3.847,0.591,4.986-3.205C56.566,54.063,55.853,54.152,54.828,54.001z M28.403,13.598
		c-0.329,0.141-0.683,0.332-0.997,0.521c-0.301-0.255-0.493-0.621-0.493-1.029c0-0.551,0.345-1.024,0.839-1.247l1.926,1.328
		C29.287,13.277,28.815,13.422,28.403,13.598z"/>
	<path fill="#FFFFFF" d="M25.455,19.597c-0.646,0.257-3.515,1.921-4.015,0.602c-0.29-0.765-0.067-1.583,0.924-1.961
		c0.44-0.169,0.697-0.139,0.739-0.246c-0.049-0.429-0.589-0.401-1.413-0.086c-1.297,0.498-2.021,1.749-1.62,2.797
		c0.401,1.049,1.779,1.495,3.075,0.997c1.828-0.7,4.468-3.086,4.55-0.76c0.024,0.721-0.519,1.712-0.301,1.814
		c0.274,0.13,0.911-1.166,0.79-2.164C27.995,19.063,26.764,19.078,25.455,19.597z"/>
	<path fill="#FFFFFF" d="M16.706,13.147c-0.111-0.371-0.66-2.433-0.66-2.433l-0.361-1.631c0,0-0.352-1.216-1.019-1.096
		c-0.771,0.137-0.683,0.88-0.647,1.073c-0.047-0.197-0.266-0.873-0.925-0.693c-0.822,0.224-0.642,0.702-0.591,1.159
		c-0.054-0.167-0.234-0.918-1.114-0.686c-0.614,0.162-0.565,0.748-0.517,0.982c-0.069-0.217-0.326-0.748-1.087-0.486
		c-0.584,0.201-0.438,0.932-0.419,1.005c0,0-3.378,1.291-2.848,2.838c0.178,0.519,1.082,1.793,3.469,1.173
		c0,0-0.705-0.931-0.783-1.226c-0.125-0.466,0.056-0.92,0.401-1.013c0.014-0.003,0.026-0.005,0.041-0.007l0.403,1.522l0.183-0.063
		c0,0,0.45-0.195,0.635-0.331c0.185-0.141,0.271-0.264,0.42-0.519c0.15-0.246,0.204-0.522,0.245-0.79
		c0.049-0.26,0.033-0.484,0.033-0.484l0.473,1.502c0,0,0.1-0.037,0.209-0.111c0.113-0.067,0.334-0.271,0.505-0.547
		c0.179-0.269,0.271-0.651,0.313-0.883c0.039-0.197-0.01-0.412-0.042-0.522c0.435,0.287,1.311,0.536,1.311,0.536l-0.068,1.708
		c0.012,0.07-3.422,1.423-3.422,1.423s-0.075,0.489,0.192,1.013c0.199,0.391,0.445,0.524,0.674,0.676l0.035-0.007l-0.408,4.572
		l2.463,0.947l2.588-2.219l-0.512-4.219c0.13-0.169,0.749-0.947,0.778-1.012C16.81,13.925,16.819,13.518,16.706,13.147z"/>
	<path fill="#FFFFFF" d="M31.899,51.918c-0.012-0.03-0.047-0.239-0.06-0.268c0.317-0.121,0.596-0.239,0.739-0.369
		c0.711-0.658,0.47-1.071,0.341-1.698c-0.13-0.649-1.337-2.484-1.26-3.888c0.025-0.468,0.952-0.633,1.617-0.82
		c0,0,2.845-0.676,4.762-1.068c-0.387-0.837-0.999-2.649-1.594-5.285c-1.643,0.471-4.046,1.182-5.112,1.478
		c-5.39,1.495-3.888,4.134-3.826,4.669c0.086,0.741,0.241,1.661,0.225,2.053c-0.081,2.053-1.108,2.586-2.203,3.299
		c-5.702,3.705-5.934-0.795-6.423-1.58c-0.753-1.205-1.193-2.192-2.581-2.635c-0.22-0.07-0.457-0.28-0.667-0.326l0.002-0.005
		c-0.665-0.193-1.411-0.188-2.101,0.056c-0.795,0.283-1.356,0.83-1.601,1.473c0.164-0.097,0.341-0.181,0.533-0.25
		c0.371-0.132,0.764-0.185,1.152-0.174c-0.209,0.26-0.326,0.598-0.292,0.957c0.01,0.104,0.033,0.202,0.063,0.297
		c0.174,0.609,0.85,1.026,1.615,0.955c0.086-0.009,0.403-0.032,0.482-0.03c0.857,0.019,1.601,0.561,0.997,1.27
		c-0.464,0.544-2.468-0.611-3.225-0.936c-0.484-0.206-1.413-0.373-2.055-0.283c-0.215,0.032-0.468,0.102-0.654,0.181l-0.004-0.005
		c-0.653,0.259-1.247,0.723-1.648,1.349c-0.463,0.721-0.572,1.508-0.369,2.173c0.07-0.178,0.16-0.357,0.273-0.53
		c0.188-0.294,0.427-0.551,0.698-0.767c0.074,0.204,0.183,0.389,0.324,0.549c0.334,0.489,0.922,0.732,1.601,0.64
		c0.021-0.002,0.042-0.002,0.063-0.003c0.433-0.041,0.818-0.213,1.117-0.468c0.084-0.056,0.169-0.116,0.251-0.183
		c0.848-0.67,2.129,0.213,2.238,0.76c0.051,0.253,0.018,0.466-0.07,0.654c-0.311,0.271-0.734,0.452-0.99,0.669
		c-0.398,0.334-0.66,0.8-0.714,1.281c-0.062,0.531,0.06,1.047,0.292,1.559c0.308,0.683,0.836,1.138,1.42,1.309
		c-0.099-0.137-0.185-0.288-0.26-0.454c-0.1-0.224-0.167-0.458-0.206-0.697c0.03,0.007,0.06,0.014,0.09,0.019
		c0.169,0.062,0.352,0.109,0.54,0.099c0.466-0.03,0.797-0.153,1.034-0.329c-0.002-0.056-0.005-0.113-0.005-0.169
		c0-1.564,1.268-2.834,2.834-2.834c1.564,0,2.834,1.27,2.834,2.834c0,0.837-0.364,1.59-0.943,2.108
		c-0.044,0.093-0.165,0.185-0.405,0.304c-0.012,0.007-0.025,0.016-0.039,0.023c1.001-0.063,2.697-0.465,3.241-0.823
		c2.758-1.817,2.375-3.842,2.375-3.842c0.171-0.079,0.45-0.304,0.688-0.412c1.194,1.411,2.818,1.97,4.599,1.232
		c-0.917-0.324-1.583-1.107-2.053-2.032c1.209,1.024,2.762,1.504,4.312,0.862C32.925,53.526,32.414,52.965,31.899,51.918z"/>
	<g>
		<path fill="#FFFFFF" d="M42.657,65.505c-0.473-0.417-0.843-0.89-1.04-1.464c-0.178-0.515-0.148-1.115,0.077-1.64
			c0.128-0.304,0.405-0.642,0.584-1.013c-1.43,0.251-3.436,0.519-5.79,0.688c-0.007,0.084-4.374,0.327-7.122,0.044
			c-3.014-0.311-7.062-1.404-10.478-2.713c0,0,1.465-1.67,1.453-2.229c-0.019-0.82-0.633-1.409-1.42-1.409
			c-0.786,0-1.42,0.632-1.42,1.409c0,0.427,0.192,0.809,0.498,1.068l-0.429,0.644c-2.773-1.114-4.801-2.09-4.801-2.09l-2.028-0.994
			c-0.028-0.382-0.162-0.732-0.371-1.026c0.376-0.223,0.663-0.554,0.795-0.971c0.123-0.391,0.093-0.799-0.058-1.179
			c-0.269,0.779-1.043,1.277-1.949,1.346c-0.141-0.032-0.29-0.049-0.442-0.049c-1.123,0-2.032,0.91-2.032,2.032
			c0,0.709,0.362,1.332,0.913,1.696c-0.319,0.436-0.507,0.973-0.507,1.553c0,0.553,0.169,1.064,0.459,1.488
			c0.032-1.557,1.304-2.808,2.868-2.808c0.595,0,1.603,0.574,1.603,0.574c0.06,0.032,0.12,0.061,0.179,0.091
			c0.512,0.253,2.145,1.131,4.141,2.178c0,0-2.085,2.69-2.058,3.202c0.044,0.906,0.637,1.407,1.422,1.407
			c0.783,0,1.422-0.63,1.422-1.407c0-0.442-0.206-0.834-0.53-1.093l0.98-1.462c3.186,1.659,6.888,3.436,8.446,3.994
			c3.659,1.316,7.868,1.978,11.991,1.439c2.239-0.29,3.728-0.619,5.06-0.994C42.931,65.728,42.792,65.625,42.657,65.505z"/>
	</g>
	<path fill="#FFFFFF" d="M50.442,12.869c-3.64,0.153-6.829,2.621-6.829,6.231c0,1.4,0.711,3.284,1.749,4.41l2.178-0.436
		c-0.811-0.837-1.74-2.461-1.74-3.714c0-2.567,2.101-4.648,4.687-4.648c2.593,0,4.692,2.081,4.692,4.648s-1.768,4.277-4.692,4.648
		c-1.163,0.15-3.11-0.169-5.691,1.034c-0.654,0.308-1.098,0.609-1.429,0.95c-1.367,0.983-0.628,2.681-0.535,3.607
		c0.102,1.005-0.433,1.919-1.112,2.562c1.589-0.039,2.963-1.105,3.538-2.665c0.271,0.58,0.343,1.492,0.225,2.095
		c1.745-1.358,0.772-4.558,0.814-4.505c-0.058-0.924,0.758-1.022,1.765-0.994c2.76,0.079,4.344-0.443,4.344-0.443
		c2.683-0.829,4.63-3.307,4.63-6.242C57.036,15.797,54.073,12.718,50.442,12.869z"/>
</g>
<g>
	<path fill="#FFFFFF" d="M81.596,53.79c-4.86-1.54-13.35-5.703-17.378-16.465c2.977,5.372,11.923,9.402,18.876,9.799
		c0.626,0.035,1.255,0.054,1.883,0.054c2.509,0,5.049-0.285,7.549-0.846c-1.32,2.129-2.993,4.005-4.907,5.341
		c-1.297,0.902-2.689,1.568-4.143,1.974c-0.484,0.1-0.991,0.154-1.491,0.154C81.986,53.802,81.727,53.797,81.596,53.79"/>
	<path fill="#FFFFFF" d="M79.754,28.577c-0.554,0-1.103-0.016-1.645-0.047c-6.804-0.393-11.78-3.098-13.313-7.241
		c-0.056-0.152-0.112-0.306-0.157-0.465c-0.044-0.143-0.07-0.318-0.082-0.568c-0.033-0.355-0.037-0.783-0.009-1.236l-0.042,0.047
		l0.051-0.091c0.035-0.512,0.105-0.935,0.187-1.129c2.103-5.117,5.362-9.126,9.951-12.25c-1.479,2.488-0.829,4.876,0.463,6.103
		c1.36,1.152,3.668,1.911,5.902,2.643l0.918,0.301c4.355,1.332,7.907,4.593,10.563,9.694c0.248,0.477,0.486,0.977,0.715,1.507
		c-1.164,0.416-2.388,0.855-3.605,1.222C86.37,28.053,82.947,28.577,79.754,28.577"/>
	<path fill="#009FE3" d="M89.704,55.26c-0.472,0-0.951-0.012-1.432-0.033c6.054-1.888,8.315-6.154,9.855-10.498
		c6.661-2.6,10.537-5.631,13.79-10.783c2.154-3.414,4.061-9.963,3.575-14.346c1.264,3.804,1.617,8.918,1.201,11.675
		C114.536,45.623,103.69,55.26,89.706,55.26H89.704z"/>
	<path fill="#009FE3" d="M99.361,39.417c0.556-3.729,0.285-7.708-0.75-11.446c3.241-1.72,6.122-3.956,8.306-6.395
		c2.694-3.016,3.853-7.561,3.054-11.921c1.692,2.023,3.051,7.121,3.14,8.154c0.322,3.769-0.593,7.659-2.65,11.25
		C108.048,33.277,104.109,36.952,99.361,39.417"/>
	<path fill="#FFFFFF" d="M85.182,42.906c-0.554,0-1.108-0.016-1.661-0.049c-9.757-0.558-17.582-5.977-19.932-13.804
		c-0.145-0.472-0.797-2.757-0.724-4.792c1.227,6.43,12.241,8.458,14.995,8.614c0.621,0.037,1.25,0.054,1.881,0.054
		c3.617,0,7.477-0.584,11.164-1.692c1.292-0.39,2.565-0.841,3.783-1.341c0.834,3.773,0.827,7.885-0.107,11.537
		c-0.208,0.037-0.395,0.098-0.582,0.152c-2.911,0.876-5.879,1.32-8.813,1.32H85.182z"/>
	<path fill="#009FE3" d="M97.102,23.766c-1.217-3.084-4.846-10.519-12.196-12.96c-0.563-0.187-1.168-0.315-1.808-0.456
		c-1.607-0.348-3.271-0.708-4.46-2.009c-0.797-1.091-1.051-2.128-0.752-3.068C78.441,3.535,80.777,2.467,82.062,2
		c-0.077,0.273-0.11,0.547-0.093,0.815c0.121,2.287,3.329,4.014,7.463,4.014c0.262,0,0.528-0.009,0.797-0.021
		c4.383-0.241,7.85-2.383,7.785-4.792c2.089,0.647,4.082,1.537,5.928,2.645c0.4,0.241,1.727,1.257,2.079,1.673
		c0.551,0.643,0.902,1.224,1.047,1.734c0.14,0.474,0.236,0.956,0.285,1.437c0.516,4.843-3.5,10.474-10.231,14.355L97.102,23.766z"/>
</g>
</svg>
