<?xml version="1.0" encoding="utf-8"?>
<!-- Generator: Adobe Illustrator 17.0.0, SVG Export Plug-In . SVG Version: 6.00 Build 0)  -->
<!DOCTYPE svg PUBLIC "-//W3C//DTD SVG 1.1//EN" "http://www.w3.org/Graphics/SVG/1.1/DTD/svg11.dtd">
<svg version="1.1" id="Layer_1" xmlns="http://www.w3.org/2000/svg" xmlns:xlink="http://www.w3.org/1999/xlink" x="0px" y="0px"
	 width="16px" height="16px" viewBox="0 0 16 16" enable-background="new 0 0 16 16" xml:space="preserve">
<g>
	<path fill="#FFFFFF" d="M16,3.333C16,3.698,15.697,4,15.333,4H0.667C0.302,4,0,3.698,0,3.333V2c0-0.364,0.302-0.667,0.667-0.667
		h14.666C15.697,1.333,16,1.636,16,2V3.333z M16,8.667c0,0.364-0.302,0.667-0.667,0.667H0.667C0.302,9.333,0,9.031,0,8.667V7.333
		c0-0.364,0.302-0.667,0.667-0.667h14.666C15.697,6.667,16,6.969,16,7.333V8.667z M16,14c0,0.364-0.302,0.667-0.667,0.667H0.667
		C0.302,14.667,0,14.364,0,14v-1.333C0,12.302,0.302,12,0.667,12h14.666C15.697,12,16,12.302,16,12.667V14z"/>
</g>
</svg>
